{
  "asset": {
    "generator": "Khronos glTF Blender I/O v4.0.44",
    "version": "2.0"
  },
  "scene": 0,
  "scenes": [
    {
      "name": "Scene",
      "nodes": [0, 1]
    }
  ],
  "nodes": [
    {
      "mesh": 0,
      "name": "Book"
    },
    {
      "mesh": 1,
      "name": "BookShelf"
    }
  ],
  "materials": [
    {
      "doubleSided": true,
      "name": "Book_Paper",
      "pbrMetallicRoughness": {
        "baseColorFactor": [
          0.800000011920929, 0.7039999961853027, 0.5600000619888306, 1
        ],
        "metallicFactor": 0,
        "roughnessFactor": 0.5
      }
    },
    {
      "doubleSided": true,
      "name": "Book_Orage",
      "pbrMetallicRoughness": {
        "baseColorFactor": [
          0.800000011920929, 0.23680005967617035, 0.1600000411272049, 1
        ],
        "metallicFactor": 0,
        "roughnessFactor": 0.5
      }
    },
    {
      "doubleSided": true,
      "name": "Book_Blue",
      "pbrMetallicRoughness": {
        "baseColorFactor": [
          0.48000001907348633, 0.800000011920929, 0.800000011920929, 1
        ],
        "metallicFactor": 0,
        "roughnessFactor": 0.5
      }
    },
    {
      "doubleSided": true,
      "name": "Book_Green",
      "pbrMetallicRoughness": {
        "baseColorFactor": [
          0.671999990940094, 0.800000011920929, 0.1599999964237213, 1
        ],
        "metallicFactor": 0,
        "roughnessFactor": 0.5
      }
    },
    {
      "doubleSided": true,
      "name": "BookShelf",
      "pbrMetallicRoughness": {
        "baseColorFactor": [0.5, 0.24400001764297485, 0.10000002384185791, 1],
        "metallicFactor": 0,
        "roughnessFactor": 0.5
      }
    }
  ],
  "meshes": [
    {
      "name": "Cube.005",
      "primitives": [
        {
          "attributes": {
            "POSITION": 0,
            "NORMAL": 1,
            "TEXCOORD_0": 2
          },
          "indices": 3,
          "material": 0
        },
        {
          "attributes": {
            "POSITION": 4,
            "NORMAL": 5,
            "TEXCOORD_0": 6
          },
          "indices": 7,
          "material": 1
        },
        {
          "attributes": {
            "POSITION": 8,
            "NORMAL": 9,
            "TEXCOORD_0": 10
          },
          "indices": 7,
          "material": 2
        },
        {
          "attributes": {
            "POSITION": 11,
            "NORMAL": 12,
            "TEXCOORD_0": 13
          },
          "indices": 7,
          "material": 3
        }
      ]
    },
    {
      "name": "\u7acb\u65b9\u4f53",
      "primitives": [
        {
          "attributes": {
            "POSITION": 14,
            "NORMAL": 15,
            "TEXCOORD_0": 16
          },
          "indices": 17,
          "material": 4
        }
      ]
    }
  ],
  "accessors": [
    {
      "bufferView": 0,
      "componentType": 5126,
      "count": 336,
      "max": [0.3708922863006592, 0.34644851088523865, 0.11837968975305557],
      "min": [-0.3364337682723999, 0.007569541223347187, -0.11562585085630417],
      "type": "VEC3"
    },
    {
      "bufferView": 1,
      "componentType": 5126,
      "count": 336,
      "type": "VEC3"
    },
    {
      "bufferView": 2,
      "componentType": 5126,
      "count": 336,
      "type": "VEC2"
    },
    {
      "bufferView": 3,
      "componentType": 5123,
      "count": 1188,
      "type": "SCALAR"
    },
    {
      "bufferView": 4,
      "componentType": 5126,
      "count": 806,
      "max": [0.08278244733810425, 0.35742121934890747, 0.10884861648082733],
      "min": [-0.3472902178764343, 0, -0.11522666364908218],
      "type": "VEC3"
    },
    {
      "bufferView": 5,
      "componentType": 5126,
      "count": 806,
      "type": "VEC3"
    },
    {
      "bufferView": 6,
      "componentType": 5126,
      "count": 806,
      "type": "VEC2"
    },
    {
      "bufferView": 7,
      "componentType": 5123,
      "count": 3420,
      "type": "SCALAR"
    },
    {
      "bufferView": 8,
      "componentType": 5126,
      "count": 806,
      "max": [-0.023516923189163208, 0.3565150797367096, 0.13015276193618774],
      "min": [-0.2359587848186493, 0, -0.12573321163654327],
      "type": "VEC3"
    },
    {
      "bufferView": 9,
      "componentType": 5126,
      "count": 806,
      "type": "VEC3"
    },
    {
      "bufferView": 10,
      "componentType": 5126,
      "count": 806,
      "type": "VEC2"
    },
    {
      "bufferView": 11,
      "componentType": 5126,
      "count": 806,
      "max": [0.3827824592590332, 0.35742121934890747, 0.13015274703502655],
      "min": [0.16351687908172607, 0, -0.1013951227068901],
      "type": "VEC3"
    },
    {
      "bufferView": 12,
      "componentType": 5126,
      "count": 806,
      "type": "VEC3"
    },
    {
      "bufferView": 13,
      "componentType": 5126,
      "count": 806,
      "type": "VEC2"
    },
    {
      "bufferView": 14,
      "componentType": 5126,
      "count": 208,
      "max": [0.5, 0, 0.19999998807907104],
      "min": [-0.5, -0.19999998807907104, -0.19999998807907104],
      "type": "VEC3"
    },
    {
      "bufferView": 15,
      "componentType": 5126,
      "count": 208,
      "type": "VEC3"
    },
    {
      "bufferView": 16,
      "componentType": 5126,
      "count": 208,
      "type": "VEC2"
    },
    {
      "bufferView": 17,
      "componentType": 5123,
      "count": 948,
      "type": "SCALAR"
    }
  ],
  "bufferViews": [
    {
      "buffer": 0,
      "byteLength": 4032,
      "byteOffset": 0,
      "target": 34962
    },
    {
      "buffer": 0,
      "byteLength": 4032,
      "byteOffset": 4032,
      "target": 34962
    },
    {
      "buffer": 0,
      "byteLength": 2688,
      "byteOffset": 8064,
      "target": 34962
    },
    {
      "buffer": 0,
      "byteLength": 2376,
      "byteOffset": 10752,
      "target": 34963
    },
    {
      "buffer": 0,
      "byteLength": 9672,
      "byteOffset": 13128,
      "target": 34962
    },
    {
      "buffer": 0,
      "byteLength": 9672,
      "byteOffset": 22800,
      "target": 34962
    },
    {
      "buffer": 0,
      "byteLength": 6448,
      "byteOffset": 32472,
      "target": 34962
    },
    {
      "buffer": 0,
      "byteLength": 6840,
      "byteOffset": 38920,
      "target": 34963
    },
    {
      "buffer": 0,
      "byteLength": 9672,
      "byteOffset": 45760,
      "target": 34962
    },
    {
      "buffer": 0,
      "byteLength": 9672,
      "byteOffset": 55432,
      "target": 34962
    },
    {
      "buffer": 0,
      "byteLength": 6448,
      "byteOffset": 65104,
      "target": 34962
    },
    {
      "buffer": 0,
      "byteLength": 9672,
      "byteOffset": 71552,
      "target": 34962
    },
    {
      "buffer": 0,
      "byteLength": 9672,
      "byteOffset": 81224,
      "target": 34962
    },
    {
      "buffer": 0,
      "byteLength": 6448,
      "byteOffset": 90896,
      "target": 34962
    },
    {
      "buffer": 0,
      "byteLength": 2496,
      "byteOffset": 97344,
      "target": 34962
    },
    {
      "buffer": 0,
      "byteLength": 2496,
      "byteOffset": 99840,
      "target": 34962
    },
    {
      "buffer": 0,
      "byteLength": 1664,
      "byteOffset": 102336,
      "target": 34962
    },
    {
      "buffer": 0,
      "byteLength": 1896,
      "byteOffset": 104000,
      "target": 34963
    }
  ],
  "buffers": [
    {
      "byteLength": 105896,
      "uri": "book.bin"
    }
  ]
}
